<svg width="68" height="40" viewBox="0 0 68 40" fill="none" xmlns="http://www.w3.org/2000/svg">
<path d="M14.588 17.66L2.312 6.572L3.258 7.1L3.324 17H0.0900001V0.169999H0.222L12.234 11.214L11.53 10.906L11.464 0.807999H14.676V17.66H14.588ZM21.4859 0.807999H32.5299V3.888H24.6759V7.342H31.6279V10.422H24.6759V13.92H32.8379V17H21.4859V0.807999ZM37.4582 0.807999H41.5282L52.0882 17H47.9742L37.4582 0.807999ZM37.2382 17L43.0022 7.936L44.4982 11.148L41.1982 17H37.2382ZM44.7182 6.748L48.0622 0.807999H51.9342L46.3682 9.498L44.7182 6.748ZM56.2596 0.807999H67.1716V3.888H63.2336V17H60.0436V3.888H56.2596V0.807999Z" fill="#5727A6"/>
<path d="M12.872 23.094V39H10.76V32.026H2.422V39H0.288V23.094H2.422V30.002H10.76V23.094H12.872ZM16.464 31.058C16.464 29.958 16.6693 28.924 17.08 27.956C17.5053 26.9733 18.092 26.108 18.84 25.36C19.588 24.5973 20.446 24.0033 21.414 23.578C22.3967 23.138 23.4527 22.918 24.582 22.918C25.6967 22.918 26.738 23.138 27.706 23.578C28.6887 24.0033 29.554 24.5973 30.302 25.36C31.0647 26.108 31.6587 26.9733 32.084 27.956C32.5093 28.924 32.722 29.958 32.722 31.058C32.722 32.1873 32.5093 33.2433 32.084 34.226C31.6587 35.2087 31.0647 36.074 30.302 36.822C29.554 37.5553 28.6887 38.1347 27.706 38.56C26.738 38.9707 25.6967 39.176 24.582 39.176C23.4527 39.176 22.3967 38.9707 21.414 38.56C20.446 38.1493 19.588 37.5773 18.84 36.844C18.092 36.1107 17.5053 35.2527 17.08 34.27C16.6693 33.2873 16.464 32.2167 16.464 31.058ZM18.664 31.08C18.664 31.916 18.818 32.7007 19.126 33.434C19.434 34.1527 19.8593 34.7907 20.402 35.348C20.9447 35.9053 21.5753 36.3453 22.294 36.668C23.0127 36.976 23.79 37.13 24.626 37.13C25.4473 37.13 26.2173 36.976 26.936 36.668C27.6547 36.3453 28.278 35.9053 28.806 35.348C29.334 34.7907 29.752 34.1527 30.06 33.434C30.368 32.7007 30.522 31.9087 30.522 31.058C30.522 30.222 30.368 29.4373 30.06 28.704C29.752 27.956 29.3267 27.3033 28.784 26.746C28.2413 26.1887 27.6107 25.756 26.892 25.448C26.1733 25.1253 25.4033 24.964 24.582 24.964C23.746 24.964 22.9687 25.1253 22.25 25.448C21.5313 25.7707 20.9007 26.2107 20.358 26.768C19.8153 27.3253 19.3973 27.978 19.104 28.726C18.8107 29.4593 18.664 30.244 18.664 31.08ZM36.3173 39V22.588H36.3393L44.6773 34.424L43.7753 34.248L52.0913 22.588H52.1353V39H50.0233V27.428L50.1553 28.506L44.1493 36.998H44.1053L38.0113 28.506L38.3853 27.516V39H36.3173ZM56.706 23.094H67.046V25.14H58.84V29.98H66.166V32.026H58.84V36.954H67.354V39H56.706V23.094Z" fill="black"/>
</svg>
